<?xml version="1.0" encoding="utf-8"?>
<svg height="148.0mm" stroke-miterlimit="10" style="fill-rule:nonzero;clip-rule:evenodd;stroke-linecap:round;stroke-linejoin:round;" version="1.1" viewBox="0 0 595.35 419.58" width="210.0mm" xmlns="http://www.w3.org/2000/svg" xmlns:bx="https://boxy-svg.com">
  <text style="fill: rgb(0, 90, 201); font-family: VT323; font-size: 87.9014px; letter-spacing: 0.4px; white-space: pre;" transform="matrix(0.517127, 0, 0, 0.474958, 168.134679, 169.398885)" x="387.65" y="273.022">&gt;sh</text>
  <g id="Layer-1" transform="matrix(1, 0, 0, 1, 6.583837, 57.595453)">
    <path d="M 125.04 76.598 C 106.46 103.042 100.524 208.025 126.644 211.327 C 160.284 215.578 201.519 107.983 167.361 86.396 C 143.173 71.11 63.916 126.908 121.753 124.985 C 146.826 124.151 169.695 113.411 193.368 106.762" fill="none" opacity="1" stroke="#005ac9" stroke-linecap="round" stroke-linejoin="round" stroke-width="6.37521"/>
    <path d="M 167.075 173.782 C 171.887 164.99 179.708 159.691 191.02 161.137 C 206.938 163.172 208.903 178.338 206.479 188.119 C 201.736 207.255 186.473 211.214 183.078 211.201 C 168.259 211.146 156.965 196.042 167.184 173.569" fill="none" opacity="1" stroke="#005ac9" stroke-linecap="round" stroke-linejoin="round" stroke-width="6.38" style=""/>
    <path d="M 210.567 160.288 C 208.115 174.9 197.801 226.392 222.675 208.444" fill="none" opacity="1" stroke="#005ac9" stroke-linecap="round" stroke-linejoin="round" stroke-width="6.37521"/>
    <path d="M 218.949 210.876 C 235.338 202.502 230.079 160.802 230.789 160.802 C 231.045 160.802 230.87 175.634 230.779 176.453 C 229.67 186.426 228.925 199.754 228.457 211.662 C 228.381 213.604 225.45 161.142 248.392 160.953 C 268.593 160.787 256.2 207.19 261.216 210.888 C 263.081 212.263 265.465 209.276 270.621 200.649" fill="none" opacity="1" stroke="#005ac9" stroke-linecap="round" stroke-linejoin="round" stroke-width="6.37521"/>
    <path d="M 270.687 200.362 C 276.273 192.682 284.702 160.958 284.516 160.96 C 284.033 160.966 284.661 223.89 302.322 208.798" fill="none" opacity="1" stroke="#005ac9" stroke-linecap="round" stroke-linejoin="round" stroke-width="6.37521"/>
    <path d="M 302.853 208.258 C 310.213 202.091 316.615 188.713 318.483 184.978 C 328.88 164.184 337.981 89.269 323.543 88.568 C 306.963 87.763 307.201 202.539 328.349 210.698 C 334.227 212.966 339.75 205.936 340.816 204.828" fill="none" opacity="1" stroke="#005ac9" stroke-linecap="round" stroke-linejoin="round" stroke-width="6.37521"/>
    <path d="M 339.033 206.645 C 345.666 200.72 350.615 191.218 352.483 187.483 C 362.88 166.689 372.344 90.273 357.543 89.441 C 339.391 88.42 342.654 201.653 363.802 209.812 C 369.68 212.08 373.75 207.957 374.816 206.849" fill="none" opacity="1" stroke="#005ac9" stroke-linecap="round" stroke-linejoin="round" stroke-width="6.37521"/>
    <path d="M 374.736 206.916 C 381.31 201.823 398.811 159.851 401.344 159.851 C 403.96 159.851 413.567 210.885 412.983 210.885 C 412.75 210.885 371.995 181.533 371.977 181.429 C 371.84 180.649 412.459 181.163 422.187 180.391" fill="none" opacity="1" stroke="#005ac9" stroke-linecap="round" stroke-linejoin="round" stroke-width="6.37521"/>
    <path d="M 280.19 145.168 C 276.69 138.477 272.221 129.339 279.927 127.422 C 282.584 126.761 284.218 128.307 284.954 129.434 C 285.49 130.256 286.336 133.148 286.336 133.458 C 286.335 134.05 286.657 130.558 289.055 128.815 C 289.888 128.21 292.553 127.214 294.522 128.03 C 300.161 130.366 293.765 141.205 289.907 145.96 C 288.583 147.591 285.372 151.611 284.949 151.575 C 284.588 151.544 282.151 148.917 280.19 145.168 Z" fill="none" opacity="1" stroke="#ff0101" stroke-linecap="round" stroke-linejoin="round" style="stroke-width: 3px;"/>
  </g>
  <defs>
    <style bx:fonts="VT323">@import url(https://fonts.googleapis.com/css2?family=VT323%3Aital%2Cwght%400%2C400&amp;display=swap);</style>
  </defs>
</svg>