<svg xmlns="http://www.w3.org/2000/svg" xmlns:xlink="http://www.w3.org/1999/xlink" width="500" zoomAndPan="magnify" viewBox="0 0 375 374.999991" height="500" preserveAspectRatio="xMidYMid meet" version="1.0"><defs><g/><clipPath id="a7108193ce"><path d="M 23.207031 180.628906 L 352.484375 180.628906 L 352.484375 345.269531 L 23.207031 345.269531 Z M 23.207031 180.628906 " clip-rule="nonzero"/></clipPath><clipPath id="8d4107d1a6"><path d="M 23.207031 180.628906 L 270.164062 180.628906 L 352.484375 262.949219 L 270.164062 345.269531 L 23.207031 345.269531 L 105.527344 262.949219 Z M 23.207031 180.628906 " clip-rule="nonzero"/></clipPath></defs><path stroke-linecap="butt" transform="matrix(0.75, 0, 0, 0.75, 22.514608, 168.125847)" fill="none" stroke-linejoin="miter" d="M 0.00135666 3.49887 L 439.959719 3.49887 " stroke="#000000" stroke-width="7" stroke-opacity="1" stroke-miterlimit="4"/><g clip-path="url(#a7108193ce)"><g clip-path="url(#8d4107d1a6)"><path fill="#524d74" d="M 23.207031 180.628906 L 352.484375 180.628906 L 352.484375 345.269531 L 23.207031 345.269531 Z M 23.207031 180.628906 " fill-opacity="1" fill-rule="nonzero"/></g></g><path stroke-linecap="butt" transform="matrix(1.298343, 0, 0, 1.298343, 57.787376, 16.056193)" fill="none" stroke-linejoin="miter" d="M 17.589819 89.502924 L 25.689082 43.163823 C 26.050119 41.346604 26.230638 40.170225 26.230638 39.640704 C 26.230638 39.108174 26.263733 38.491403 26.332932 37.787381 L 25.174605 37.787381 C 20.390864 37.787381 16.81058 38.936682 14.427736 41.235284 C 12.041883 43.515834 10.850461 46.163439 10.850461 49.181107 C 10.850461 50.655341 11.220524 51.828712 11.957641 52.704226 C 12.694759 53.576732 13.73274 54.015994 15.068577 54.015994 C 15.619158 54.015994 16.046385 53.964847 16.356276 53.859545 C 16.681209 53.757251 16.843676 53.706104 16.843676 53.706104 C 16.843676 53.706104 16.861727 53.775303 16.894822 53.910692 C 16.927918 54.049089 16.945969 54.298806 16.945969 54.656835 C 16.945969 55.90843 16.278051 57.202146 14.939205 58.540991 C 13.62142 59.876828 11.623682 60.547755 8.949 60.547755 C 5.504105 60.547755 2.793319 59.58499 0.822658 57.665477 C -1.132959 55.727911 -2.107759 53.173574 -2.107759 50.002466 C -2.107759 44.80955 0.187835 40.51321 4.782031 37.119462 C 9.394279 33.707662 15.944092 32.001762 24.428461 32.001762 L 33.815424 32.001762 C 36.628504 32.001762 38.839855 32.618534 40.449479 33.855086 C 42.062111 35.070577 43.286628 37.230782 44.126039 40.3357 L 60.147056 96.780828 L 66.344858 61.60078 C 67.683704 54.298806 68.300475 48.486111 68.198182 44.165701 C 68.092879 39.845292 67.776972 36.743382 67.244442 34.856964 C 66.729964 32.952493 66.47423 32.001762 66.47423 32.001762 C 66.47423 32.001762 66.748016 31.848322 67.295589 31.538432 C 67.864222 31.213498 68.814953 31.051032 70.15079 31.051032 C 72.190649 31.051032 73.64984 31.547458 74.522347 32.543318 C 75.397861 33.521127 75.834114 35.233044 75.834114 37.685087 C 75.834114 39.451159 75.638553 41.653485 75.244421 44.295073 C 74.865332 46.918608 74.35988 49.987423 73.725056 53.501516 L 65.625793 99.840617 C 64.990969 103.35471 64.708157 105.881969 64.777356 107.425403 C 64.846555 108.968836 64.912745 109.808247 64.981944 109.946644 C 64.981944 109.946644 64.416319 110.127163 63.28507 110.485191 C 62.171872 110.828176 60.243333 110.999669 57.499452 110.999669 C 54.620181 110.999669 52.423873 110.313699 50.916543 108.941758 C 49.409214 107.569817 48.268939 105.478811 47.495718 102.66874 L 31.294182 45.477469 L 24.970017 81.400651 C 23.70037 88.636435 23.116694 94.431079 23.221996 98.784583 C 23.32429 103.141097 23.625154 106.267075 24.12158 108.171546 C 24.618006 110.057964 24.867723 110.999669 24.867723 110.999669 C 24.867723 110.999669 24.584911 111.15311 24.019286 111.463 C 23.453661 111.787933 22.499922 111.9504 21.164085 111.9504 C 19.208468 111.9504 17.770337 111.444948 16.843676 110.434044 C 15.935066 109.405089 15.480761 107.699189 15.480761 105.316345 C 15.480761 103.481073 15.670305 101.269722 16.046385 98.68229 C 16.440518 96.076806 16.954995 93.017017 17.589819 89.502924 Z M 128.596665 68.776391 L 122.91334 102.154262 C 122.91334 102.154262 123.487991 101.913571 124.637292 101.435197 C 125.804645 100.935762 127.293923 100.249792 129.111142 99.377286 C 130.946414 98.483719 132.850884 97.46379 134.821545 96.317497 C 136.792205 95.150144 138.549252 93.934653 140.092685 92.665006 C 140.796707 92.665006 141.335254 92.87862 141.711334 93.308855 C 142.105466 93.718031 142.234838 94.319759 142.099449 95.108023 C 141.876809 96.016633 140.709456 97.277254 138.600399 98.886877 C 136.64779 100.361112 134.135574 101.964718 131.06676 103.697695 C 128.015997 105.412621 124.947182 107.040296 121.860316 108.58373 L 121.655728 109.841342 C 119.615869 122.065453 116.134871 131.461441 111.212733 138.026298 C 106.311655 144.594163 99.960413 147.876591 92.159005 147.876591 C 88.575712 147.876591 85.714494 146.838609 83.569332 144.765655 C 81.427179 142.689692 80.356103 140.042088 80.356103 136.816824 C 80.356103 133.714914 81.177462 130.757419 82.823189 127.947348 C 84.486968 125.15232 86.614078 122.667182 89.20151 120.488925 C 91.876192 118.244478 94.689272 116.219662 97.637741 114.420495 C 100.58621 112.63637 104.202597 110.692787 108.486903 108.58373 L 110.701264 94.978652 C 109.997241 96.317497 109.293219 97.569092 108.592206 98.733437 C 107.888184 99.882738 107.151066 100.986909 106.380854 102.051968 C 104.202597 105.069636 101.897978 107.314083 99.460978 108.788317 C 97.045039 110.262552 94.40646 110.999669 91.542233 110.999669 C 88.028139 110.999669 85.233111 109.877446 83.160157 107.62999 C 81.084194 105.385543 80.046213 102.437075 80.046213 98.784583 C 80.046213 96.813923 80.142489 94.84928 80.329025 92.896672 C 80.500518 90.926011 80.82846 88.567236 81.306834 85.823355 L 84.366622 68.337129 C 84.932247 65.045675 85.088696 62.713977 84.829953 61.345045 C 84.589262 59.973105 84.468916 59.287135 84.468916 59.287135 C 84.468916 59.287135 84.890126 59.130685 85.729537 58.823804 C 86.568948 58.49887 87.976992 58.336404 89.947653 58.336404 C 94.027371 58.336404 96.506492 59.139711 97.378998 60.752343 C 98.254513 62.364975 98.374858 65.036649 97.740035 68.776391 L 93.521919 93.101259 C 93.043545 96.118927 93.109735 98.330279 93.726507 99.735314 C 94.36133 101.143359 95.459485 101.844372 97.017961 101.844372 C 98.203366 101.844372 99.460978 101.194505 100.799824 99.891764 C 102.135661 98.589022 103.474506 96.883122 104.810343 94.774064 C 106.835159 91.617999 108.814845 87.745877 110.752411 83.151681 C 112.689976 78.539433 114.179253 73.602252 115.226261 68.337129 C 115.861084 65.045675 116.032577 62.713977 115.740739 61.345045 C 115.466952 59.973105 115.328555 59.287135 115.328555 59.287135 C 115.328555 59.287135 115.749764 59.130685 116.589176 58.823804 C 117.446638 58.49887 118.851674 58.336404 120.807291 58.336404 C 124.887009 58.336404 127.363122 59.139711 128.238636 60.752343 C 129.111142 62.364975 129.231488 65.036649 128.596665 68.776391 Z M 91.10598 140.905568 C 94.824661 140.905568 98.073994 138.73032 100.850971 134.373807 C 103.627947 130.020302 105.788152 123.635964 107.331585 115.217785 C 100.456838 118.801077 95.501605 122.032358 92.468895 124.911628 C 88.335021 128.907105 86.271093 132.66189 86.271093 136.175983 C 86.271093 137.51182 86.674251 138.634043 87.477558 139.542653 C 88.283874 140.451263 89.493348 140.905568 91.10598 140.905568 Z M 187.68338 66.974214 L 183.158383 92.562712 C 182.61081 95.733821 182.755225 98.074544 183.594636 99.581873 C 184.437056 101.092212 185.79997 101.844372 187.68338 101.844372 C 189.518652 101.844372 191.489312 101.023013 193.59837 99.377286 C 195.707428 97.713507 197.431379 95.475078 198.767216 92.665006 C 199.453187 92.665006 199.994742 92.87862 200.388874 93.308855 C 200.783006 93.718031 200.903352 94.422053 200.746903 95.417913 C 200.473116 96.822949 199.82325 98.408503 198.794294 100.174576 C 197.78339 101.922597 196.435519 103.619471 194.756697 105.265198 C 193.074866 106.910925 191.146327 108.282865 188.971079 109.38102 C 186.792822 110.461122 184.437056 110.999669 181.897762 110.999669 C 178.452867 110.999669 175.606692 109.961688 173.362245 107.888733 C 171.11479 105.812771 169.854169 102.882353 169.580383 99.094474 C 167.402126 102.951552 164.926014 105.900021 162.149038 107.93988 C 159.372061 109.979739 156.474739 110.999669 153.457072 110.999669 C 149.172766 110.999669 145.520275 109.525434 142.502607 106.576966 C 139.484939 103.628497 137.97761 99.05837 137.97761 92.869594 C 137.97761 86.972656 138.747822 81.873008 140.291255 77.57065 C 141.834688 73.250241 143.865522 69.666949 146.386763 66.820773 C 148.923048 63.974598 151.718077 61.850497 154.768839 60.442453 C 157.837654 59.037417 160.915494 58.336404 163.999352 58.336404 C 166.658992 58.336404 168.92149 58.814778 170.789857 59.774534 C 172.658223 60.719248 174.183605 61.961817 175.366001 63.50525 C 176.205412 61.60078 177.345687 60.264943 178.786826 59.491722 C 180.227966 58.72151 182.249773 58.336404 184.855257 58.336404 C 186.672476 58.336404 188.002296 58.513914 188.841707 58.874951 C 189.69917 59.217936 190.126397 59.389428 190.126397 59.389428 C 190.126397 59.389428 189.861637 59.937001 189.329107 61.035155 C 188.799586 62.115258 188.249005 64.094944 187.68338 66.974214 Z M 157.675187 101.844372 C 159.576649 101.844372 161.333696 100.986909 162.946328 99.274992 C 164.55896 97.542014 165.99709 95.330663 167.266737 92.637928 C 168.536384 89.930151 169.640556 87.050881 170.58226 84.000118 C 171.526974 80.931303 172.246039 78.100171 172.742465 75.512739 L 173.696205 70.548481 C 173.19677 69.504482 172.417532 68.406328 171.355481 67.257027 C 170.308474 66.092682 168.765041 65.509006 166.725182 65.509006 C 164.342337 65.509006 161.977545 66.631229 159.627796 68.878684 C 157.281055 71.123131 155.325438 74.303266 153.766962 78.419087 C 152.223528 82.516857 151.450307 87.411918 151.450307 93.101259 C 151.450307 96.049728 151.991863 98.246037 153.071965 99.684167 C 154.17012 101.125307 155.704527 101.844372 157.675187 101.844372 Z M 157.675187 101.844372 " stroke="#fffef9" stroke-width="7.89975" stroke-opacity="1" stroke-miterlimit="4"/><g fill="#425997" fill-opacity="1"><g transform="translate(57.787376, 160.172305)"><g><path d="M 22.84375 -27.890625 L 33.359375 -88.0625 C 33.816406 -90.4375 34.046875 -91.960938 34.046875 -92.640625 C 34.046875 -93.328125 34.09375 -94.128906 34.1875 -95.046875 L 32.6875 -95.046875 C 26.488281 -95.046875 21.835938 -93.5625 18.734375 -90.59375 C 15.628906 -87.632812 14.078125 -84.191406 14.078125 -80.265625 C 14.078125 -78.359375 14.554688 -76.832031 15.515625 -75.6875 C 16.472656 -74.550781 17.820312 -73.984375 19.5625 -73.984375 C 20.289062 -73.984375 20.859375 -74.050781 21.265625 -74.1875 C 21.671875 -74.320312 21.875 -74.390625 21.875 -74.390625 C 21.875 -74.390625 21.894531 -74.296875 21.9375 -74.109375 C 21.988281 -73.929688 22.015625 -73.613281 22.015625 -73.15625 C 22.015625 -71.519531 21.144531 -69.832031 19.40625 -68.09375 C 17.675781 -66.363281 15.082031 -65.5 11.625 -65.5 C 7.15625 -65.5 3.644531 -66.753906 1.09375 -69.265625 C -1.457031 -71.773438 -2.734375 -75.078125 -2.734375 -79.171875 C -2.734375 -85.921875 0.25 -91.503906 6.21875 -95.921875 C 12.1875 -100.347656 20.6875 -102.5625 31.71875 -102.5625 L 43.890625 -102.5625 C 47.535156 -102.5625 50.40625 -101.765625 52.5 -100.171875 C 54.601562 -98.578125 56.203125 -95.773438 57.296875 -91.765625 L 78.078125 -18.46875 L 86.15625 -64.140625 C 87.882812 -73.617188 88.679688 -81.160156 88.546875 -86.765625 C 88.410156 -92.367188 88 -96.398438 87.3125 -98.859375 C 86.632812 -101.328125 86.296875 -102.5625 86.296875 -102.5625 C 86.296875 -102.5625 86.660156 -102.765625 87.390625 -103.171875 C 88.117188 -103.585938 89.347656 -103.796875 91.078125 -103.796875 C 93.722656 -103.796875 95.613281 -103.15625 96.75 -101.875 C 97.882812 -100.601562 98.453125 -98.367188 98.453125 -95.171875 C 98.453125 -92.898438 98.203125 -90.050781 97.703125 -86.625 C 97.203125 -83.207031 96.539062 -79.222656 95.71875 -74.671875 L 85.1875 -14.5 C 84.375 -9.9375 84.007812 -6.648438 84.09375 -4.640625 C 84.1875 -2.640625 84.28125 -1.550781 84.375 -1.375 C 84.375 -1.375 83.644531 -1.144531 82.1875 -0.6875 C 80.726562 -0.226562 78.222656 0 74.671875 0 C 70.929688 0 68.078125 -0.882812 66.109375 -2.65625 C 64.148438 -4.4375 62.671875 -7.148438 61.671875 -10.796875 L 40.609375 -85.0625 L 32.40625 -38.421875 C 30.769531 -29.035156 30.019531 -21.515625 30.15625 -15.859375 C 30.289062 -10.210938 30.675781 -6.15625 31.3125 -3.6875 C 31.945312 -1.226562 32.265625 0 32.265625 0 C 32.265625 0 31.898438 0.203125 31.171875 0.609375 C 30.441406 1.023438 29.210938 1.234375 27.484375 1.234375 C 24.929688 1.234375 23.0625 0.570312 21.875 -0.75 C 20.695312 -2.070312 20.109375 -4.285156 20.109375 -7.390625 C 20.109375 -9.753906 20.359375 -12.625 20.859375 -16 C 21.359375 -19.375 22.019531 -23.335938 22.84375 -27.890625 Z M 22.84375 -27.890625 "/></g></g></g><g fill="#425997" fill-opacity="1"><g transform="translate(164.453941, 160.172305)"><g><path d="M 60.3125 -54.84375 L 52.921875 -11.484375 C 52.921875 -11.484375 53.671875 -11.800781 55.171875 -12.4375 C 56.679688 -13.082031 58.617188 -13.972656 60.984375 -15.109375 C 63.359375 -16.242188 65.820312 -17.5625 68.375 -19.0625 C 70.925781 -20.570312 73.207031 -22.148438 75.21875 -23.796875 C 76.125 -23.796875 76.828125 -23.519531 77.328125 -22.96875 C 77.828125 -22.425781 77.988281 -21.65625 77.8125 -20.65625 C 77.539062 -19.46875 76.035156 -17.820312 73.296875 -15.71875 C 70.742188 -13.8125 67.484375 -11.738281 63.515625 -9.5 C 59.554688 -7.269531 55.570312 -5.148438 51.5625 -3.140625 L 51.28125 -1.5 C 48.632812 14.363281 44.117188 26.554688 37.734375 35.078125 C 31.359375 43.597656 23.109375 47.859375 12.984375 47.859375 C 8.335938 47.859375 4.625 46.515625 1.84375 43.828125 C -0.9375 41.140625 -2.328125 37.695312 -2.328125 33.5 C -2.328125 29.488281 -1.253906 25.660156 0.890625 22.015625 C 3.035156 18.367188 5.789062 15.132812 9.15625 12.3125 C 12.625 9.394531 16.269531 6.769531 20.09375 4.4375 C 23.925781 2.113281 28.625 -0.410156 34.1875 -3.140625 L 37.0625 -20.78125 C 36.144531 -19.050781 35.226562 -17.429688 34.3125 -15.921875 C 33.40625 -14.421875 32.453125 -12.988281 31.453125 -11.625 C 28.628906 -7.707031 25.644531 -4.789062 22.5 -2.875 C 19.351562 -0.957031 15.910156 0 12.171875 0 C 7.609375 0 3.984375 -1.457031 1.296875 -4.375 C -1.390625 -7.289062 -2.734375 -11.117188 -2.734375 -15.859375 C -2.734375 -18.410156 -2.617188 -20.960938 -2.390625 -23.515625 C -2.160156 -26.066406 -1.726562 -29.125 -1.09375 -32.6875 L 2.875 -55.390625 C 3.601562 -59.671875 3.804688 -62.695312 3.484375 -64.46875 C 3.171875 -66.25 3.015625 -67.140625 3.015625 -67.140625 C 3.015625 -67.140625 3.5625 -67.34375 4.65625 -67.75 C 5.75 -68.164062 7.570312 -68.375 10.125 -68.375 C 15.40625 -68.375 18.613281 -67.320312 19.75 -65.21875 C 20.894531 -63.125 21.054688 -59.664062 20.234375 -54.84375 L 14.765625 -23.25 C 14.128906 -19.332031 14.21875 -16.457031 15.03125 -14.625 C 15.851562 -12.800781 17.269531 -11.890625 19.28125 -11.890625 C 20.832031 -11.890625 22.472656 -12.734375 24.203125 -14.421875 C 25.929688 -16.109375 27.664062 -18.320312 29.40625 -21.0625 C 32.039062 -25.164062 34.613281 -30.203125 37.125 -36.171875 C 39.632812 -42.140625 41.570312 -48.546875 42.9375 -55.390625 C 43.757812 -59.671875 43.988281 -62.695312 43.625 -64.46875 C 43.257812 -66.25 43.078125 -67.140625 43.078125 -67.140625 C 43.078125 -67.140625 43.625 -67.34375 44.71875 -67.75 C 45.8125 -68.164062 47.632812 -68.375 50.1875 -68.375 C 55.476562 -68.375 58.691406 -67.320312 59.828125 -65.21875 C 60.960938 -63.125 61.125 -59.664062 60.3125 -54.84375 Z M 11.625 38.84375 C 16.457031 38.84375 20.671875 36.015625 24.265625 30.359375 C 27.867188 24.703125 30.675781 16.40625 32.6875 5.46875 C 23.75 10.113281 17.320312 14.304688 13.40625 18.046875 C 8.019531 23.242188 5.328125 28.125 5.328125 32.6875 C 5.328125 34.414062 5.851562 35.875 6.90625 37.0625 C 7.957031 38.25 9.53125 38.84375 11.625 38.84375 Z M 11.625 38.84375 "/></g></g></g><g fill="#425997" fill-opacity="1"><g transform="translate(241.035079, 160.172305)"><g><path d="M 60.4375 -57.15625 L 54.5625 -23.9375 C 53.832031 -19.832031 54.015625 -16.796875 55.109375 -14.828125 C 56.203125 -12.867188 57.976562 -11.890625 60.4375 -11.890625 C 62.8125 -11.890625 65.363281 -12.960938 68.09375 -15.109375 C 70.832031 -17.253906 73.066406 -20.148438 74.796875 -23.796875 C 75.710938 -23.796875 76.421875 -23.519531 76.921875 -22.96875 C 77.421875 -22.425781 77.582031 -21.515625 77.40625 -20.234375 C 77.039062 -18.410156 76.195312 -16.359375 74.875 -14.078125 C 73.550781 -11.804688 71.796875 -9.597656 69.609375 -7.453125 C 67.421875 -5.304688 64.910156 -3.523438 62.078125 -2.109375 C 59.253906 -0.703125 56.203125 0 52.921875 0 C 48.453125 0 44.757812 -1.34375 41.84375 -4.03125 C 38.925781 -6.71875 37.285156 -10.523438 36.921875 -15.453125 C 34.097656 -10.441406 30.882812 -6.613281 27.28125 -3.96875 C 23.675781 -1.320312 19.914062 0 16 0 C 10.4375 0 5.691406 -1.910156 1.765625 -5.734375 C -2.148438 -9.566406 -4.109375 -15.492188 -4.109375 -23.515625 C -4.109375 -31.179688 -3.101562 -37.816406 -1.09375 -43.421875 C 0.914062 -49.023438 3.5625 -53.671875 6.84375 -57.359375 C 10.125 -61.054688 13.742188 -63.816406 17.703125 -65.640625 C 21.671875 -67.460938 25.660156 -68.375 29.671875 -68.375 C 33.140625 -68.375 36.082031 -67.757812 38.5 -66.53125 C 40.914062 -65.300781 42.894531 -63.679688 44.4375 -61.671875 C 45.53125 -64.128906 47.007812 -65.859375 48.875 -66.859375 C 50.75 -67.867188 53.375 -68.375 56.75 -68.375 C 59.125 -68.375 60.859375 -68.144531 61.953125 -67.6875 C 63.046875 -67.226562 63.59375 -67 63.59375 -67 C 63.59375 -67 63.25 -66.289062 62.5625 -64.875 C 61.875 -63.46875 61.164062 -60.894531 60.4375 -57.15625 Z M 21.46875 -11.890625 C 23.925781 -11.890625 26.203125 -13.003906 28.296875 -15.234375 C 30.398438 -17.472656 32.269531 -20.347656 33.90625 -23.859375 C 35.550781 -27.367188 36.988281 -31.109375 38.21875 -35.078125 C 39.445312 -39.046875 40.382812 -42.710938 41.03125 -46.078125 L 42.25 -52.515625 C 41.613281 -53.878906 40.613281 -55.3125 39.25 -56.8125 C 37.882812 -58.320312 35.878906 -59.078125 33.234375 -59.078125 C 30.128906 -59.078125 27.050781 -57.617188 24 -54.703125 C 20.945312 -51.785156 18.414062 -47.660156 16.40625 -42.328125 C 14.40625 -36.992188 13.40625 -30.632812 13.40625 -23.25 C 13.40625 -19.414062 14.109375 -16.5625 15.515625 -14.6875 C 16.929688 -12.820312 18.914062 -11.890625 21.46875 -11.890625 Z M 21.46875 -11.890625 "/></g></g></g><g fill="#ffffff" fill-opacity="1"><g transform="translate(106.973529, 306.792165)"><g><path d="M 10.15625 -1.75 L 10.15625 -1.9375 C 10.15625 -3.101562 9.507812 -3.6875 8.21875 -3.6875 C 7.050781 -3.6875 6.46875 -4.273438 6.46875 -5.453125 L 6.46875 -19.578125 C 6.46875 -20.691406 7.113281 -21.25 8.40625 -21.25 C 9.570312 -21.25 10.15625 -21.925781 10.15625 -23.28125 C 10.15625 -24.382812 10.742188 -24.9375 11.921875 -24.9375 L 25.953125 -24.9375 C 27.128906 -24.9375 27.71875 -24.320312 27.71875 -23.09375 C 27.71875 -21.863281 28.363281 -21.25 29.65625 -21.25 C 30.820312 -21.25 31.40625 -20.691406 31.40625 -19.578125 L 31.40625 -5.453125 C 31.40625 -4.273438 30.757812 -3.6875 29.46875 -3.6875 C 28.300781 -3.6875 27.71875 -3.039062 27.71875 -1.75 C 27.71875 -0.582031 27.128906 0 25.953125 0 L 11.921875 0 C 10.742188 0 10.15625 -0.582031 10.15625 -1.75 Z M 10.15625 -1.75 "/></g></g></g><g fill="#ffffff" fill-opacity="1"><g transform="translate(144.846227, 306.792165)"><g><path d="M 17.546875 -1.75 L 17.546875 -3.78125 C 17.546875 -4.957031 16.960938 -5.546875 15.796875 -5.546875 L 13.765625 -5.546875 C 12.597656 -5.546875 12.015625 -6.128906 12.015625 -7.296875 L 12.015625 -9.328125 C 12.015625 -10.492188 11.425781 -11.078125 10.25 -11.078125 L 8.21875 -11.078125 C 7.050781 -11.078125 6.46875 -11.664062 6.46875 -12.84375 L 6.46875 -73.625 C 6.46875 -74.789062 7.050781 -75.375 8.21875 -75.375 L 10.25 -75.375 C 11.425781 -75.375 12.015625 -75.960938 12.015625 -77.140625 L 12.015625 -79.171875 C 12.015625 -80.335938 12.597656 -80.921875 13.765625 -80.921875 L 15.796875 -80.921875 C 16.960938 -80.921875 17.546875 -81.503906 17.546875 -82.671875 L 17.546875 -84.703125 C 17.546875 -85.878906 18.132812 -86.46875 19.3125 -86.46875 L 58.65625 -86.46875 C 59.882812 -86.46875 60.5 -85.847656 60.5 -84.609375 L 60.5 -82.765625 C 60.5 -81.535156 61.117188 -80.921875 62.359375 -80.921875 L 65.59375 -80.921875 C 66.820312 -80.921875 67.4375 -80.304688 67.4375 -79.078125 L 67.4375 -63.375 C 67.4375 -62.132812 66.820312 -61.515625 65.59375 -61.515625 L 49.875 -61.515625 C 48.644531 -61.515625 48.03125 -62.132812 48.03125 -63.375 L 48.03125 -65.3125 C 48.03125 -66.476562 47.445312 -67.0625 46.28125 -67.0625 L 44.34375 -67.0625 C 43.113281 -67.0625 42.5 -67.675781 42.5 -68.90625 L 42.5 -79.171875 C 42.5 -80.335938 41.910156 -80.921875 40.734375 -80.921875 L 38.703125 -80.921875 C 37.535156 -80.921875 36.953125 -80.335938 36.953125 -79.171875 L 36.953125 -77.140625 C 36.953125 -75.960938 36.363281 -75.375 35.1875 -75.375 L 33.15625 -75.375 C 31.988281 -75.375 31.40625 -74.789062 31.40625 -73.625 L 31.40625 -12.84375 C 31.40625 -11.664062 31.988281 -11.078125 33.15625 -11.078125 L 35.1875 -11.078125 C 36.363281 -11.078125 36.953125 -10.492188 36.953125 -9.328125 L 36.953125 -7.296875 C 36.953125 -6.128906 37.535156 -5.546875 38.703125 -5.546875 L 40.734375 -5.546875 C 41.910156 -5.546875 42.5 -6.128906 42.5 -7.296875 L 42.5 -24.9375 C 42.5 -26.113281 41.910156 -26.703125 40.734375 -26.703125 L 38.703125 -26.703125 C 37.535156 -26.703125 36.953125 -27.285156 36.953125 -28.453125 L 36.953125 -38.703125 C 36.953125 -39.929688 37.566406 -40.546875 38.796875 -40.546875 L 65.59375 -40.546875 C 66.820312 -40.546875 67.4375 -39.929688 67.4375 -38.703125 L 67.4375 -1.75 C 67.4375 -0.582031 66.847656 0 65.671875 0 L 55.609375 0 C 54.441406 0 53.859375 -0.582031 53.859375 -1.75 L 53.859375 -3.6875 C 53.859375 -4.925781 53.238281 -5.546875 52 -5.546875 L 50.15625 -5.546875 C 48.925781 -5.546875 48.3125 -4.925781 48.3125 -3.6875 L 48.3125 -1.84375 C 48.3125 -0.613281 47.695312 0 46.46875 0 L 19.3125 0 C 18.132812 0 17.546875 -0.582031 17.546875 -1.75 Z M 17.546875 -1.75 "/></g></g></g><g fill="#ffffff" fill-opacity="1"><g transform="translate(218.74416, 306.792165)"><g><path d="M 17.546875 -1.75 L 17.546875 -3.78125 C 17.546875 -4.957031 16.960938 -5.546875 15.796875 -5.546875 L 13.765625 -5.546875 C 12.597656 -5.546875 12.015625 -6.128906 12.015625 -7.296875 L 12.015625 -9.328125 C 12.015625 -10.492188 11.425781 -11.078125 10.25 -11.078125 L 8.21875 -11.078125 C 7.050781 -11.078125 6.46875 -11.664062 6.46875 -12.84375 L 6.46875 -73.625 C 6.46875 -74.789062 7.050781 -75.375 8.21875 -75.375 L 10.25 -75.375 C 11.425781 -75.375 12.015625 -75.960938 12.015625 -77.140625 L 12.015625 -79.171875 C 12.015625 -80.335938 12.597656 -80.921875 13.765625 -80.921875 L 15.796875 -80.921875 C 16.960938 -80.921875 17.546875 -81.503906 17.546875 -82.671875 L 17.546875 -84.703125 C 17.546875 -85.878906 18.132812 -86.46875 19.3125 -86.46875 L 58.65625 -86.46875 C 59.882812 -86.46875 60.5 -85.847656 60.5 -84.609375 L 60.5 -82.765625 C 60.5 -81.535156 61.117188 -80.921875 62.359375 -80.921875 L 65.59375 -80.921875 C 66.820312 -80.921875 67.4375 -80.304688 67.4375 -79.078125 L 67.4375 -63.375 C 67.4375 -62.132812 66.820312 -61.515625 65.59375 -61.515625 L 49.875 -61.515625 C 48.644531 -61.515625 48.03125 -62.132812 48.03125 -63.375 L 48.03125 -65.3125 C 48.03125 -66.476562 47.445312 -67.0625 46.28125 -67.0625 L 44.34375 -67.0625 C 43.113281 -67.0625 42.5 -67.675781 42.5 -68.90625 L 42.5 -79.171875 C 42.5 -80.335938 41.910156 -80.921875 40.734375 -80.921875 L 38.703125 -80.921875 C 37.535156 -80.921875 36.953125 -80.335938 36.953125 -79.171875 L 36.953125 -77.140625 C 36.953125 -75.960938 36.363281 -75.375 35.1875 -75.375 L 33.15625 -75.375 C 31.988281 -75.375 31.40625 -74.789062 31.40625 -73.625 L 31.40625 -12.84375 C 31.40625 -11.664062 31.988281 -11.078125 33.15625 -11.078125 L 35.1875 -11.078125 C 36.363281 -11.078125 36.953125 -10.492188 36.953125 -9.328125 L 36.953125 -7.296875 C 36.953125 -6.128906 37.535156 -5.546875 38.703125 -5.546875 L 40.734375 -5.546875 C 41.910156 -5.546875 42.5 -6.128906 42.5 -7.296875 L 42.5 -24.9375 C 42.5 -26.113281 41.910156 -26.703125 40.734375 -26.703125 L 38.703125 -26.703125 C 37.535156 -26.703125 36.953125 -27.285156 36.953125 -28.453125 L 36.953125 -38.703125 C 36.953125 -39.929688 37.566406 -40.546875 38.796875 -40.546875 L 65.59375 -40.546875 C 66.820312 -40.546875 67.4375 -39.929688 67.4375 -38.703125 L 67.4375 -1.75 C 67.4375 -0.582031 66.847656 0 65.671875 0 L 55.609375 0 C 54.441406 0 53.859375 -0.582031 53.859375 -1.75 L 53.859375 -3.6875 C 53.859375 -4.925781 53.238281 -5.546875 52 -5.546875 L 50.15625 -5.546875 C 48.925781 -5.546875 48.3125 -4.925781 48.3125 -3.6875 L 48.3125 -1.84375 C 48.3125 -0.613281 47.695312 0 46.46875 0 L 19.3125 0 C 18.132812 0 17.546875 -0.582031 17.546875 -1.75 Z M 17.546875 -1.75 "/></g></g></g></svg>