<svg xmlns="http://www.w3.org/2000/svg" xmlns:xlink="http://www.w3.org/1999/xlink" width="500" zoomAndPan="magnify" viewBox="0 0 375 374.999991" height="500" preserveAspectRatio="xMidYMid meet" version="1.0"><defs><clipPath id="d0dba4f806"><path d="M 38 140 L 128 140 L 128 260.75 L 38 260.75 Z M 38 140 " clip-rule="nonzero"/></clipPath><clipPath id="d34cd0e6bb"><path d="M 148 207 L 200 207 L 200 260.75 L 148 260.75 Z M 148 207 " clip-rule="nonzero"/></clipPath><clipPath id="bf34e5ec0c"><path d="M 193 207 L 229 207 L 229 260.75 L 193 260.75 Z M 193 207 " clip-rule="nonzero"/></clipPath><clipPath id="793f2869ba"><path d="M 222 141 L 259 141 L 259 260.75 L 222 260.75 Z M 222 141 " clip-rule="nonzero"/></clipPath><clipPath id="4c38734d4d"><path d="M 219 56 L 281.839844 56 L 281.839844 127 L 219 127 Z M 219 56 " clip-rule="nonzero"/></clipPath><clipPath id="0a32ea315e"><path d="M 92.839844 60 L 159 60 L 159 133 L 92.839844 133 Z M 92.839844 60 " clip-rule="nonzero"/></clipPath><clipPath id="65eaac6b9a"><path d="M 129.015625 285 L 246 285 L 246 317 L 129.015625 317 Z M 129.015625 285 " clip-rule="nonzero"/></clipPath></defs><g clip-path="url(#d0dba4f806)"><path stroke-linecap="round" transform="matrix(0.921738, 0, 0, 0.923351, -46.664985, 61.962037)" fill="none" stroke-linejoin="round" d="M 115.691888 88.281165 C 103.537543 118.525106 105.308992 216.977616 131.024671 211.32565 C 160.86808 204.768354 189.24517 97.004484 151.587042 90.193357 C 127.295304 85.802084 60.412503 126.618079 118.247352 124.693195 C 143.323105 123.859784 162.101314 117.209416 185.774316 110.559049 " stroke="#005ac9" stroke-width="6.375" stroke-opacity="1" stroke-miterlimit="10"/></g><path stroke-linecap="round" transform="matrix(0.921738, 0, 0, 0.923351, -46.664985, 61.962037)" fill="none" stroke-linejoin="round" d="M 163.499826 173.784074 C 168.314099 164.988836 174.704878 159.929142 186.969409 160.897929 C 202.967544 162.162853 205.328064 178.336106 202.903975 188.117053 C 198.161747 207.255896 182.896771 211.215657 179.502199 211.202965 C 164.682205 211.147969 153.388157 196.040805 163.610012 173.568317 " stroke="#005ac9" stroke-width="6.38" stroke-opacity="1" stroke-miterlimit="10"/><path stroke-linecap="round" transform="matrix(0.921738, 0, 0, 0.923351, -46.664985, 61.962037)" fill="none" stroke-linejoin="round" d="M 206.667245 160.635638 C 204.217729 175.247831 199.318698 222.989176 215.58806 208.178148 " stroke="#005ac9" stroke-width="6.375" stroke-opacity="1" stroke-miterlimit="10"/><g clip-path="url(#d34cd0e6bb)"><path stroke-linecap="round" transform="matrix(0.921738, 0, 0, 0.923351, -46.664985, 61.962037)" fill="none" stroke-linejoin="round" d="M 214.456536 209.282312 C 225.94129 201.642005 222.919656 160.631407 223.627388 160.631407 C 223.885901 160.631407 223.330734 199.420985 222.864563 211.32565 C 222.78828 213.267456 218.630884 161.143299 241.570727 160.952926 C 261.772876 160.787936 249.376969 207.188208 254.394663 210.889907 C 256.259346 212.264824 258.645293 209.278082 263.7986 200.647834 " stroke="#005ac9" stroke-width="6.375" stroke-opacity="1" stroke-miterlimit="10"/></g><g clip-path="url(#bf34e5ec0c)"><path stroke-linecap="round" transform="matrix(0.921738, 0, 0, 0.923351, -46.664985, 61.962037)" fill="none" stroke-linejoin="round" d="M 263.285812 201.379713 C 265.286109 197.716088 265.887893 196.683843 269.151089 187.655927 C 272.85079 177.426546 276.0038 161.062919 275.897852 161.06715 C 275.656291 161.06715 277.292127 176.483141 279.495843 190.177313 C 281.767367 204.277615 286.344317 216.706863 295.303272 209.049634 " stroke="#005ac9" stroke-width="6.375" stroke-opacity="1" stroke-miterlimit="10"/></g><g clip-path="url(#793f2869ba)"><path stroke-linecap="round" transform="matrix(0.921738, 0, 0, 0.923351, -46.664985, 61.962037)" fill="none" stroke-linejoin="round" d="M 295.553309 208.880413 C 298.608847 206.325183 313.030478 186.154095 318.637242 162.509755 C 326.549432 129.147926 324.693224 89.601085 316.247057 89.190726 C 308.474717 88.81421 304.397842 113.837697 304.435983 141.365649 C 304.4826 172.565686 314.708693 212.696337 327.575008 211.524484 " stroke="#005ac9" stroke-width="6.375" stroke-opacity="1" stroke-miterlimit="10"/></g><path stroke-linecap="round" transform="matrix(0.921738, 0, 0, 0.923351, -46.664985, 61.962037)" fill="none" stroke-linejoin="round" d="M 329.367647 211.177582 C 334.033593 210.564158 349.646078 183.336573 355.854626 153.574911 C 362.211501 123.115213 358.715219 89.165343 351.231059 88.742291 C 341.674557 88.205016 338.368982 120.293461 340.170096 151.087369 C 341.78898 178.78031 347.794108 206.202498 357.808305 210.064957 C 363.686296 212.332512 367.030012 208.03008 367.030012 208.03008 " stroke="#005ac9" stroke-width="6.375" stroke-opacity="1" stroke-miterlimit="10"/><path stroke-linecap="round" transform="matrix(0.921738, 0, 0, 0.923351, -46.664985, 61.962037)" fill="none" stroke-linejoin="round" d="M 367.5428 207.509727 C 373.018188 202.974617 388.634911 150.592399 391.169185 150.592399 C 393.78398 150.592399 407.569923 211.135277 406.989328 211.135277 C 406.756243 211.135277 368.801461 174.778244 368.801461 174.778244 L 411.901074 174.549796 " stroke="#005ac9" stroke-width="6.375" stroke-opacity="1" stroke-miterlimit="10"/><path stroke-linecap="round" transform="matrix(0.921738, 0, 0, 0.923351, -46.664985, 61.962037)" fill="none" stroke-linejoin="round" d="M 273.583949 141.856388 C 270.558077 136.399026 266.693097 128.94063 273.355102 127.37534 C 275.652053 126.833835 277.067517 128.094528 277.703204 129.01678 C 278.165137 129.685201 278.898297 132.045827 278.898297 132.299658 C 278.894059 132.781937 279.173762 129.934801 281.246103 128.509118 C 281.966549 128.018378 284.271975 127.201889 285.97138 127.870311 C 290.849222 129.778272 285.318741 138.624276 281.9835 142.503657 C 280.839263 143.836268 276.033465 149.234404 275.664767 149.20479 C 275.355399 149.179407 275.279116 144.915049 273.583949 141.856388 Z M 273.583949 141.856388 " stroke="#ff0101" stroke-width="4" stroke-opacity="1" stroke-miterlimit="10"/><g clip-path="url(#4c38734d4d)"><path fill="#005ac9" d="M 281.710938 89.359375 C 281.386719 83.953125 280.902344 78.511719 280.097656 73.144531 C 279.453125 68.832031 278.6875 64.472656 277.195312 60.359375 C 276.710938 58.949219 276.183594 57.253906 274.773438 56.527344 C 273.441406 55.84375 272.152344 56.328125 270.941406 57.011719 C 270.09375 57.496094 269.167969 57.898438 268.28125 58.34375 C 264.851562 60.039062 261.464844 61.894531 258.15625 63.871094 C 252.347656 67.339844 246.785156 71.25 241.539062 75.523438 C 237.46875 78.871094 233.554688 82.503906 229.964844 86.375 C 227.304688 89.238281 224.804688 92.261719 222.542969 95.449219 C 221.414062 97.0625 220.246094 98.757812 219.4375 100.570312 C 219.316406 100.894531 219.117188 101.214844 219.074219 101.578125 C 218.832031 102.585938 219.398438 103.796875 220.488281 104.078125 C 221.496094 104.320312 222.707031 103.757812 222.988281 102.667969 C 222.988281 102.585938 223.027344 102.507812 223.070312 102.425781 C 223.191406 102.183594 223.3125 101.941406 223.433594 101.699219 C 223.875 100.8125 224.398438 99.964844 224.964844 99.160156 C 225.730469 97.949219 226.578125 96.820312 227.425781 95.652344 C 227.546875 95.488281 227.667969 95.367188 227.746094 95.207031 C 227.789062 95.125 227.867188 95.085938 227.910156 95.003906 C 228.191406 94.640625 228.472656 94.28125 228.753906 93.917969 C 229.359375 93.148438 230.003906 92.425781 230.652344 91.65625 C 233.796875 88.027344 237.183594 84.640625 240.773438 81.453125 C 241.824219 80.527344 242.910156 79.597656 244.042969 78.671875 C 244.605469 78.1875 245.171875 77.742188 245.734375 77.300781 C 246.015625 77.058594 246.339844 76.816406 246.621094 76.613281 C 246.742188 76.492188 246.863281 76.414062 247.027344 76.292969 C 246.984375 76.332031 246.945312 76.332031 246.945312 76.332031 C 246.984375 76.292969 247.027344 76.292969 247.027344 76.25 C 247.1875 76.128906 247.105469 76.171875 247.027344 76.25 C 247.105469 76.210938 247.1875 76.128906 247.269531 76.089844 C 249.847656 74.113281 252.511719 72.21875 255.214844 70.445312 C 258.199219 68.46875 261.261719 66.652344 264.367188 64.917969 C 266.0625 63.992188 267.757812 63.101562 269.449219 62.214844 C 270.335938 61.773438 271.183594 61.328125 272.070312 60.925781 C 272.355469 60.804688 272.597656 60.644531 272.878906 60.523438 C 272.917969 60.601562 272.957031 60.722656 273 60.804688 C 273.160156 61.207031 273.28125 61.609375 273.441406 62.054688 C 273.765625 62.980469 274.007812 63.910156 274.25 64.835938 C 274.8125 66.933594 275.257812 69.070312 275.621094 71.25 C 275.824219 72.460938 276.023438 73.628906 276.183594 74.839844 C 276.226562 75.121094 276.265625 75.402344 276.304688 75.644531 C 276.304688 75.6875 276.304688 75.6875 276.304688 75.726562 C 276.347656 75.886719 276.347656 76.089844 276.386719 76.25 C 276.46875 76.898438 276.546875 77.542969 276.628906 78.1875 C 276.910156 80.808594 277.152344 83.390625 277.355469 86.011719 C 277.757812 91.292969 277.960938 96.539062 277.960938 101.820312 C 278 106.296875 277.917969 110.816406 277.597656 115.292969 C 277.558594 116.179688 277.476562 117.066406 277.394531 117.996094 C 277.355469 118.398438 277.316406 118.800781 277.273438 119.164062 C 277.234375 119.367188 277.234375 119.527344 277.195312 119.730469 C 277.195312 119.808594 277.195312 119.851562 277.152344 119.929688 C 276.992188 120.980469 276.832031 122.066406 276.507812 123.117188 C 276.507812 123.15625 276.46875 123.238281 276.46875 123.277344 C 276.425781 123.359375 276.347656 123.519531 276.347656 123.519531 C 275.78125 124.40625 276.144531 125.777344 277.074219 126.261719 C 278.082031 126.785156 279.210938 126.503906 279.816406 125.535156 C 280.339844 124.730469 280.582031 123.679688 280.742188 122.753906 C 281.066406 121.179688 281.226562 119.609375 281.386719 118.035156 C 281.792969 113.800781 281.914062 109.523438 281.953125 105.289062 C 282.15625 99.925781 282.035156 94.640625 281.710938 89.359375 Z M 281.710938 89.359375 " fill-opacity="1" fill-rule="nonzero"/></g><path fill="#005ac9" d="M 265.738281 85.851562 C 265.660156 84.960938 265.617188 83.996094 265.375 83.148438 C 265.296875 82.867188 265.132812 82.582031 264.851562 82.460938 C 264.167969 82.058594 263.359375 82.582031 262.796875 83.027344 C 262.027344 83.632812 261.261719 84.195312 260.457031 84.800781 C 256.785156 87.542969 253.035156 90.207031 249.726562 93.433594 C 246.21875 96.820312 243.316406 100.8125 241.660156 105.453125 C 241.460938 106.054688 241.257812 106.660156 241.097656 107.265625 C 240.773438 108.515625 242.710938 109.039062 243.03125 107.789062 C 244.242188 103.355469 246.742188 99.441406 249.890625 96.09375 C 252.914062 92.949219 256.382812 90.285156 259.890625 87.707031 C 260.699219 87.101562 261.503906 86.496094 262.351562 85.890625 C 262.753906 85.566406 263.160156 85.285156 263.5625 84.960938 C 263.601562 85.203125 263.601562 85.445312 263.640625 85.648438 C 264.003906 89.277344 264.207031 92.949219 264.289062 96.617188 C 264.449219 101.78125 264.449219 106.984375 263.925781 112.144531 C 263.882812 112.671875 264.410156 113.15625 264.933594 113.15625 C 265.539062 113.15625 265.902344 112.671875 265.941406 112.144531 C 266.425781 107.386719 266.464844 102.546875 266.34375 97.789062 C 266.304688 93.753906 266.101562 89.761719 265.738281 85.851562 Z M 265.738281 85.851562 " fill-opacity="1" fill-rule="nonzero"/><g clip-path="url(#0a32ea315e)"><path fill="#005ac9" d="M 155.269531 97.34375 C 154.019531 96.132812 152.648438 95.289062 151.117188 94.519531 C 150.875 94.402344 150.632812 94.199219 150.390625 94.039062 C 150.3125 93.996094 150.269531 93.957031 150.191406 93.875 C 149.988281 93.714844 149.785156 93.554688 149.585938 93.390625 C 146.679688 91.054688 143.859375 88.632812 140.953125 86.253906 C 136.679688 82.746094 132.363281 79.316406 127.925781 76.050781 C 123.367188 72.660156 118.691406 69.433594 113.808594 66.613281 C 111.632812 65.363281 109.414062 64.191406 107.074219 63.183594 C 105.945312 62.699219 104.777344 62.214844 103.605469 61.8125 C 102.15625 61.328125 100.378906 60.644531 98.847656 61.207031 C 96.871094 61.894531 96.265625 63.828125 95.824219 65.644531 C 95.582031 66.652344 95.339844 67.660156 95.136719 68.628906 C 94.652344 71.046875 94.332031 73.507812 94.046875 75.96875 C 93.441406 81.375 93.121094 86.816406 93 92.261719 C 92.839844 97.828125 92.878906 103.394531 93 108.917969 C 93.121094 113.519531 93.320312 118.117188 93.726562 122.671875 C 93.886719 124.40625 94.046875 126.183594 94.289062 127.914062 C 94.410156 128.84375 94.53125 129.8125 94.855469 130.738281 C 95.015625 131.261719 95.21875 131.746094 95.621094 132.152344 C 96.347656 132.917969 97.757812 132.957031 98.484375 132.152344 C 99.128906 131.425781 99.25 130.375 98.726562 129.609375 C 98.726562 129.609375 98.726562 129.570312 98.726562 129.570312 C 98.605469 129.167969 98.523438 128.761719 98.445312 128.398438 C 98.363281 127.914062 98.28125 127.390625 98.203125 126.90625 C 98.203125 126.828125 98.203125 126.785156 98.160156 126.707031 C 98.121094 126.542969 98.121094 126.34375 98.082031 126.183594 C 98.039062 125.820312 98 125.414062 97.960938 125.050781 C 97.515625 120.898438 97.316406 116.742188 97.152344 112.589844 C 96.953125 107.265625 96.871094 101.941406 96.953125 96.617188 C 97.03125 91.132812 97.234375 85.648438 97.679688 80.164062 C 97.800781 78.914062 97.917969 77.664062 98.039062 76.414062 C 98.121094 75.808594 98.160156 75.203125 98.242188 74.597656 C 98.242188 74.4375 98.28125 74.316406 98.28125 74.152344 C 98.28125 74.152344 98.28125 74.113281 98.28125 74.113281 C 98.324219 73.832031 98.363281 73.550781 98.402344 73.265625 C 98.726562 71.128906 99.089844 69.03125 99.613281 66.933594 C 99.734375 66.492188 99.855469 66.007812 99.976562 65.5625 C 100.015625 65.402344 100.097656 65.242188 100.136719 65.078125 C 100.136719 65.039062 100.179688 65 100.179688 65 C 100.257812 65 100.300781 65.039062 100.339844 65.039062 C 100.5 65.078125 100.664062 65.121094 100.824219 65.160156 C 101.066406 65.242188 101.347656 65.320312 101.589844 65.402344 C 102.074219 65.5625 102.558594 65.726562 103.042969 65.886719 C 103.566406 66.085938 104.050781 66.25 104.574219 66.492188 C 104.613281 66.492188 104.65625 66.53125 104.695312 66.53125 C 104.777344 66.570312 104.855469 66.613281 104.9375 66.652344 C 105.21875 66.773438 105.503906 66.894531 105.785156 67.015625 C 106.875 67.5 107.960938 68.0625 109.011719 68.628906 C 113.808594 71.167969 118.367188 74.195312 122.765625 77.339844 C 125.0625 78.992188 127.320312 80.6875 129.582031 82.421875 C 129.699219 82.503906 130.105469 82.867188 129.660156 82.503906 C 129.78125 82.625 129.902344 82.703125 130.0625 82.824219 C 130.347656 83.027344 130.628906 83.269531 130.871094 83.46875 C 131.394531 83.875 131.917969 84.277344 132.445312 84.722656 C 133.453125 85.527344 134.460938 86.335938 135.46875 87.140625 C 138.695312 89.761719 141.882812 92.425781 145.109375 95.085938 C 146.117188 95.933594 147.164062 96.78125 148.214844 97.546875 C 148.457031 97.707031 148.65625 97.910156 148.9375 98.03125 C 149.464844 98.3125 150.027344 98.554688 150.511719 98.835938 C 150.835938 99.039062 151.320312 99.238281 151.519531 99.523438 C 151.480469 99.480469 151.199219 99.238281 151.480469 99.480469 C 151.5625 99.5625 151.640625 99.601562 151.722656 99.683594 C 151.882812 99.84375 152.085938 100.007812 152.246094 100.167969 C 152.527344 100.449219 152.8125 100.734375 153.09375 101.054688 C 153.175781 101.136719 153.214844 101.214844 153.296875 101.296875 C 153.296875 101.296875 153.335938 101.335938 153.375 101.378906 C 153.417969 101.417969 153.457031 101.457031 153.457031 101.5 C 153.535156 101.578125 153.578125 101.660156 153.617188 101.742188 C 154.101562 102.425781 154.503906 103.191406 154.867188 103.960938 C 155.269531 104.925781 156.804688 105.210938 157.609375 104.683594 C 158.617188 104.039062 158.78125 102.949219 158.335938 101.941406 C 157.730469 100.207031 156.644531 98.636719 155.269531 97.34375 Z M 98.242188 127.027344 C 98.28125 127.230469 98.242188 127.148438 98.242188 127.027344 Z M 98.242188 127.027344 " fill-opacity="1" fill-rule="nonzero"/></g><path fill="#005ac9" d="M 131.675781 100.128906 C 127.441406 96.941406 123.085938 93.996094 118.609375 91.175781 C 117.519531 90.488281 116.390625 89.800781 115.261719 89.117188 C 114.253906 88.511719 113.207031 87.785156 112.117188 87.300781 C 111.148438 86.859375 109.980469 86.574219 109.050781 87.222656 C 107.921875 87.988281 108.003906 89.441406 108.003906 90.691406 C 107.960938 95.972656 108.851562 101.257812 110.625 106.21875 C 110.785156 106.703125 110.988281 107.226562 111.109375 107.75 C 111.1875 108.113281 111.230469 108.597656 111.148438 108.878906 C 111.148438 108.878906 111.066406 109.039062 111.066406 109.082031 C 111.027344 109.121094 110.988281 109.203125 110.988281 109.203125 C 110.867188 109.28125 110.746094 109.324219 110.503906 109.402344 C 109.859375 109.566406 109.292969 109.765625 108.851562 110.292969 C 108.042969 111.179688 107.800781 112.46875 108.042969 113.597656 C 108.324219 114.96875 109.332031 116.058594 110.261719 117.066406 C 111.148438 117.996094 112.558594 116.582031 111.671875 115.65625 C 110.988281 114.929688 110.140625 114.121094 109.980469 113.074219 C 109.898438 112.550781 110.019531 111.742188 110.542969 111.5 C 110.988281 111.300781 111.511719 111.300781 111.957031 111.015625 C 112.359375 110.773438 112.679688 110.410156 112.882812 110.007812 C 113.285156 109.160156 113.246094 108.152344 113.042969 107.265625 C 112.84375 106.257812 112.398438 105.289062 112.117188 104.320312 C 111.753906 103.152344 111.429688 101.984375 111.148438 100.8125 C 110.582031 98.433594 110.261719 96.015625 110.101562 93.554688 C 110.019531 92.382812 110.019531 91.175781 110.058594 90.003906 C 110.058594 89.683594 110.019531 89.199219 110.222656 88.957031 C 110.179688 88.996094 110.300781 88.957031 110.382812 88.957031 C 110.582031 88.957031 110.785156 88.996094 111.027344 89.078125 C 111.996094 89.398438 112.882812 90.085938 113.730469 90.609375 C 114.820312 91.253906 115.90625 91.941406 116.996094 92.625 C 121.230469 95.289062 125.34375 98.070312 129.378906 100.972656 C 132.96875 103.597656 136.921875 106.582031 138.210938 111.015625 C 138.574219 112.265625 140.511719 111.742188 140.148438 110.492188 C 138.777344 105.933594 135.226562 102.828125 131.675781 100.128906 Z M 131.675781 100.128906 " fill-opacity="1" fill-rule="nonzero"/><g clip-path="url(#65eaac6b9a)"><path fill="#005ac9" d="M 203.992188 313.234375 C 197.679688 315.453125 188.503906 311.800781 188.257812 304.394531 C 207.414062 295.507812 199.246094 278.496094 187.878906 289.148438 C 180.90625 279.882812 166.847656 290.707031 186.261719 303.933594 C 186 312.253906 174.253906 316.769531 167.957031 311.925781 C 167.667969 311.65625 167.40625 311.359375 167.179688 311.035156 C 166.140625 309.867188 164.964844 311.417969 165.910156 312.433594 C 171.457031 319.164062 184.136719 316.128906 187.324219 308.410156 C 190.117188 314.371094 197.699219 317.296875 203.929688 315.660156 C 205.746094 315.074219 209.855469 313.441406 208.59375 311.035156 C 207.269531 309.5625 206.433594 312.683594 203.992188 313.234375 Z M 174.953125 299.984375 C 174.960938 299.996094 174.96875 300.007812 174.976562 300.019531 C 175.804688 301.503906 175.679688 301.902344 175.449219 302.097656 C 175.363281 302.171875 175.261719 302.210938 175.148438 302.207031 C 174.828125 302.207031 174.484375 301.929688 174.289062 301.773438 C 174.277344 301.761719 174.261719 301.75 174.25 301.734375 C 167.082031 293.765625 156.382812 289.476562 141.535156 288.625 C 141.445312 288.621094 141.367188 288.585938 141.304688 288.519531 C 141.242188 288.453125 141.210938 288.375 141.210938 288.285156 C 141.207031 288.195312 141.238281 288.117188 141.300781 288.050781 C 141.363281 287.984375 141.4375 287.945312 141.527344 287.941406 C 147.230469 287.480469 153.902344 288.320312 159.835938 290.242188 C 164.578125 291.777344 171.050781 294.714844 174.953125 299.984375 Z M 129.503906 298.886719 C 129.417969 298.914062 129.335938 298.910156 129.257812 298.871094 C 129.175781 298.832031 129.117188 298.773438 129.085938 298.691406 C 129.050781 298.609375 129.050781 298.527344 129.082031 298.441406 C 129.113281 298.359375 129.167969 298.296875 129.246094 298.257812 C 140.683594 292.386719 161.53125 294.171875 171.332031 301.863281 C 172.910156 303.238281 172.882812 303.613281 172.71875 303.875 C 172.617188 304.039062 172.46875 304.109375 172.277344 304.097656 C 172.015625 304.097656 171.699219 303.980469 171.402344 303.859375 C 171.386719 303.851562 171.371094 303.847656 171.355469 303.835938 C 157.902344 295.898438 144.214844 294.28125 129.503906 298.886719 Z M 168.925781 306.886719 C 156.359375 303.332031 146.726562 303.773438 136.71875 308.363281 C 136.640625 308.398438 136.558594 308.40625 136.472656 308.378906 C 136.390625 308.351562 136.324219 308.300781 136.28125 308.226562 C 136.234375 308.148438 136.222656 308.066406 136.238281 307.980469 C 136.257812 307.894531 136.300781 307.824219 136.375 307.773438 C 143.757812 302.320312 160.070312 300.957031 168.695312 305.070312 C 169.984375 305.8125 170.175781 306.183594 170.074219 306.515625 C 169.941406 306.960938 169.304688 306.921875 168.996094 306.902344 C 168.972656 306.898438 168.949219 306.894531 168.925781 306.886719 Z M 233.46875 287.941406 C 233.5625 287.945312 233.636719 287.984375 233.699219 288.050781 C 233.757812 288.117188 233.789062 288.195312 233.789062 288.285156 C 233.789062 288.375 233.753906 288.453125 233.691406 288.519531 C 233.628906 288.585938 233.554688 288.621094 233.460938 288.625 C 218.617188 289.476562 207.914062 293.765625 200.746094 301.734375 C 200.734375 301.75 200.722656 301.761719 200.707031 301.773438 C 200.515625 301.929688 200.167969 302.207031 199.851562 302.207031 C 199.738281 302.210938 199.636719 302.171875 199.550781 302.097656 C 199.316406 301.902344 199.191406 301.503906 200.023438 300.019531 C 200.03125 300.007812 200.039062 299.996094 200.046875 299.984375 C 203.949219 294.714844 210.417969 291.777344 215.160156 290.242188 C 221.09375 288.320312 227.769531 287.484375 233.46875 287.941406 Z M 245.914062 298.691406 C 245.878906 298.773438 245.824219 298.832031 245.742188 298.871094 C 245.660156 298.910156 245.578125 298.914062 245.496094 298.886719 C 230.785156 294.28125 217.09375 295.898438 203.644531 303.835938 C 203.628906 303.847656 203.613281 303.855469 203.597656 303.859375 C 203.296875 303.980469 202.980469 304.097656 202.722656 304.097656 C 202.53125 304.113281 202.382812 304.039062 202.28125 303.875 C 202.117188 303.613281 202.089844 303.238281 203.652344 301.875 C 213.46875 294.171875 234.316406 292.386719 245.753906 298.257812 C 245.832031 298.296875 245.886719 298.359375 245.917969 298.441406 C 245.949219 298.527344 245.949219 298.609375 245.914062 298.691406 Z M 238.625 307.773438 C 238.695312 307.824219 238.742188 307.894531 238.757812 307.980469 C 238.777344 308.066406 238.761719 308.148438 238.71875 308.226562 C 238.671875 308.300781 238.609375 308.351562 238.523438 308.378906 C 238.441406 308.402344 238.359375 308.398438 238.277344 308.359375 C 228.269531 303.773438 218.640625 303.332031 206.074219 306.886719 C 206.050781 306.894531 206.027344 306.898438 206 306.902344 C 205.695312 306.921875 205.058594 306.964844 204.921875 306.515625 C 204.820312 306.183594 205.015625 305.8125 206.277344 305.082031 C 214.929688 300.957031 231.242188 302.320312 238.625 307.773438 Z M 238.625 307.773438 " fill-opacity="1" fill-rule="nonzero"/></g></svg>